PathFileType	4	(X/Y/Z)	/Users/mathieubourgeois/Desktop/Analyse/Traitement/Sujet_06/Data/Transformed_Sujet_06_velo100.trc
DataRate	CameraRate	NumFrames	NumMarkers	Units	OrigDataRate	OrigDataStartFrame	OrigNumFrames
120.000000	120.000000	4	36	mm	120.000000	699	1864
Frame#	Time	RFHD			RANE			STRN			LANI			LKNE			T10			RHUM			RWRB			C7			LFWT			LTOE			RTOE			LWRA			LBWT			RBWT			RFWT			LKNI			RKNI			RKNE			LANE			RANI			LHEE			RHEE			LHUM			LRAD			RRAD			RWRA			LWRB			LFHD			LBHD			RBHD			RSHO			LSHO			CLAV			LCAR			RCAR			
		X1	Y1	Z1	X2	Y2	Z2	X3	Y3	Z3	X4	Y4	Z4	X5	Y5	Z5	X6	Y6	Z6	X7	Y7	Z7	X8	Y8	Z8	X9	Y9	Z9	X10	Y10	Z10	X11	Y11	Z11	X12	Y12	Z12	X13	Y13	Z13	X14	Y14	Z14	X15	Y15	Z15	X16	Y16	Z16	X17	Y17	Z17	X18	Y18	Z18	X19	Y19	Z19	X20	Y20	Z20	X21	Y21	Z21	X22	Y22	Z22	X23	Y23	Z23	X24	Y24	Z24	X25	Y25	Z25	X26	Y26	Z26	X27	Y27	Z27	X28	Y28	Z28	X29	Y29	Z29	X30	Y30	Z30	X31	Y31	Z31	X32	Y32	Z32	X33	Y33	Z33	X34	Y34	Z34	X35	Y35	Z35	X36	Y36	Z36	

700	5.825	273.3087463378906	1380.09326171875	125.3071136474609	65.72238922119138	439.3623657226562	192.2698516845703	-30.56970405578614	1195.913452148438	58.75612258911125	-165.6605072021484	399.6564331054688	-50.22055053710942	46.21029663085939	719.6943359375	-133.7876739501954	-188.4771118164062	1344.758056640625	58.43857192993153	190.9101409912109	1120.50732421875	253.1364440917968	390.6439514160156	1026.150024414062	176.1698913574219	46.9092788696289	1454.425659179688	68.24068450927726	-170.1790466308594	1109.453369140625	-60.80159378051767	-100.5598220825195	241.5369873046875	-127.2750473022461	241.9120330810547	372.4363403320312	182.1986236572266	403.9111022949219	1024.217529296875	-132.3714752197266	-328.8995666503906	1140.55078125	-8.124750137329212	-328.3977355957031	1136.88623046875	101.2198257446288	-170.557846069336	1106.958129882812	152.321548461914	52.59589767456055	672.037109375	-39.28551101684574	151.3716125488281	792.7528076171875	87.95397186279294	120.4440307617187	836.7440185546875	179.6631774902343	-198.6757507324218	410.4525451660156	-126.7914123535157	90.91886901855467	441.3527526855469	113.9291839599609	-243.1017456054688	434.2078857421875	-83.12510681152349	9.124407768249494	423.0172729492188	148.4456634521484	179.0339508056641	1113.21240234375	-191.9219970703125	213.4636535644532	1158.18896484375	-224.7554168701172	234.2684478759765	1153.314697265625	298.7819519042969	432.4158630371094	1040.370361328125	226.3879547119141	427.0641479492188	1026.511962890625	-191.3267364501953	275.7667236328125	1386.756103515625	-18.15078735351567	190.7060089111328	1510.543212890625	-12.7145605087281	189.7365112304688	1523.6591796875	115.6357498168945	70.99382019042966	1414.265625	198.8931579589843	62.49808883666993	1411.185913085938	-82.50672912597663	59.61818695068359	1317.288940429688	59.88385009765618	479.7185668945312	1047.669799804688	-112.7202301025391	492.1713562011719	1041.847045898438	138.8177642822266	
701	5.833333333333333	273.5132751464844	1379.81787109375	123.9990997314453	68.43302154541013	423.0256652832031	192.6924133300781	-31.04282760620118	1195.375610351562	58.65385437011711	-169.4090881347656	414.0700988769531	-49.27907180786138	53.46973800659181	727.7947998046875	-134.1320800781251	-188.6465911865234	1344.186767578125	58.70225143432607	190.651382446289	1120.309204101562	253.1781463623047	390.4615478515625	1026.067016601562	176.3186492919922	46.68315505981445	1454.848388671875	67.49111175537101	-170.4077911376953	1108.990234375	-60.2842559814454	-104.6285400390625	255.3504943847656	-126.990219116211	245.1689453125	357.1058959960938	182.0657348632812	403.7069091796875	1024.136840820312	-132.2245788574219	-329.1662292480469	1139.967163085938	-7.234496593475452	-328.2501525878906	1136.203002929688	102.123924255371	-170.3992004394532	1106.11865234375	152.8531188964843	59.23482894897462	680.473876953125	-39.26668930053714	146.5088043212891	779.3391723632812	88.15216827392575	115.2998275756836	823.4149169921875	180.0551757812499	-198.8688659667968	426.3150329589844	-126.2563018798829	93.74583435058592	425.9863891601562	114.3389434814453	-242.8472442626953	451.00439453125	-82.41506195068365	12.20288562774656	407.1290893554688	148.9935455322265	178.6770935058594	1112.4853515625	-192.1637573242188	213.1098785400391	1157.50927734375	-225.0273590087891	234.017349243164	1153.145385742188	298.8085327148438	432.1912536621094	1040.203857421875	226.6472930908203	426.9546203613281	1026.489135742188	-191.1158752441406	275.2447814941406	1386.27734375	-19.43564796447759	190.1142578125	1510.010620117188	-13.72607994079597	189.801513671875	1523.305053710938	114.5774765014648	70.94875335693357	1414.0185546875	198.3508148193359	61.90584564208985	1410.454467773438	-83.03730010986335	59.15038299560546	1316.72705078125	59.51136398315423	479.4482116699219	1047.815307617188	-112.4886474609375	491.8794555664062	1042.17578125	139.2341918945312	
702	5.841666666666667	273.8731689453125	1379.522705078125	122.6312103271484	70.02487182617185	407.3519592285156	193.1961975097656	-31.44327926635743	1194.908813476562	58.50651931762687	-169.3447113037109	428.7063293457031	-48.57920074462896	60.67554092407228	736.5384521484375	-134.4919738769532	-188.7319030761719	1343.700439453125	58.88783645629872	190.3426055908203	1120.281982421875	253.288330078125	390.2403869628906	1025.985107421875	176.6633911132812	46.50822830200195	1454.55859375	66.90208435058585	-170.5906982421875	1108.58154296875	-59.83435440063486	-107.147705078125	269.5548095703125	-126.6974487304688	247.0742950439453	341.2165832519531	181.8369598388672	403.4956359863281	1024.099487304688	-131.9178314208984	-329.3824768066406	1139.515869140625	-6.405209064483753	-328.0562744140625	1135.614135742188	102.948760986328	-170.1763763427735	1105.366455078125	153.3784637451171	66.05368804931641	689.6475830078125	-39.37731933593754	138.6272583007812	765.4655151367188	88.88137054443357	109.7860870361328	810.0924682617188	180.3280944824218	-197.8609924316406	442.2055053710938	-125.7112350463868	92.61488342285155	411.1157836914062	115.3068466186523	-241.4854278564453	467.722900390625	-81.66376495361334	14.53833580017088	391.5633239746094	148.9629516601562	178.3876953125	1111.783203125	-192.282455444336	212.6578063964844	1156.798583984375	-225.2351837158203	233.678970336914	1153.10986328125	298.8790588378906	431.9564819335938	1040.016723632812	227.0727844238281	426.81884765625	1026.471313476562	-190.82177734375	274.7106018066406	1385.857543945312	-20.90288925170904	189.5595397949219	1509.54931640625	-14.74645519256599	190.4126739501953	1522.633422851562	113.2576675415038	70.74072265624997	1413.951171875	197.865997314453	61.32910919189454	1409.804077148438	-83.61441802978523	58.72185897827148	1316.17431640625	59.14693450927727	479.2223205566406	1047.993896484375	-112.1276245117188	491.8597717285156	1042.854125976562	140.2338714599609	
703	5.85	274.3400268554688	1379.243408203125	121.1076736450195	70.19046783447263	392.1464538574219	193.6586303710937	-31.81759262084962	1194.505615234375	58.3531074523925	-168.6114959716797	444.2574768066406	-46.18893051147466	67.80471038818361	745.9384765625	-134.9124145507813	-188.7285308837891	1343.303344726562	59.02631759643544	190.0408172607422	1120.407348632812	253.3734741210937	390.0636901855469	1025.911743164062	177.1373443603516	46.43450546264648	1454.244384765625	66.22531127929679	-170.7009429931641	1108.235961914062	-59.30245971679697	-106.6683654785156	284.267578125	-126.3280639648438	247.6806182861328	324.8900451660156	181.4971160888672	403.3289489746094	1024.114135742188	-131.4892883300781	-329.5192565917969	1139.155395507812	-5.664181709289661	-327.8002014160156	1135.178833007812	103.74308013916	-169.9198303222657	1104.732177734375	153.8860626220702	75.25399017333984	699.4013671875	-39.8023834228516	131.9734802246094	751.4118041992188	89.17330169677732	103.7509613037109	796.5723266601562	180.6844635009765	-195.6988067626953	458.0188598632812	-125.1771469116212	92.89948272705077	396.0590209960938	115.7370986938476	-239.0977172851562	484.2519226074219	-80.84137725830084	14.93913841247557	376.2966613769531	149.366958618164	178.0357513427735	1111.172729492188	-192.3205871582032	212.266586303711	1156.1787109375	-225.35888671875	233.3693542480468	1153.252807617188	298.9185485839844	431.7696838378906	1039.79345703125	227.6604614257812	426.7319030761719	1026.469848632812	-190.3930358886719	274.241943359375	1385.533081054688	-22.38083076477056	189.08349609375	1509.15380859375	-15.7359867095948	190.6924591064453	1522.309448242188	112.267951965332	70.62027740478513	1413.972045898438	197.2673797607421	60.77482223510743	1409.244506835938	-84.15779113769538	58.34112930297851	1315.680419921875	58.78179931640618	479.0022888183594	1048.176391601562	-111.6377105712891	491.72216796875	1042.86865234375	140.9732971191406	
